<?xml version="1.0" encoding="iso-8859-1"?>
<!-- Uploaded to: SVG Repo, www.svgrepo.com, Generator: SVG Repo Mixer Tools -->
<svg height="800px" width="800px" version="1.1" id="Layer_1" xmlns="http://www.w3.org/2000/svg" xmlns:xlink="http://www.w3.org/1999/xlink" 
	 viewBox="0 0 512 512" xml:space="preserve">
<path style="fill:#FF9900;" d="M505.923,217.026l-72.534-61.633c-3.117-2.648-7.073-4.102-11.164-4.102h-84.348
	c-9.522,0-17.241,7.719-17.241,17.241v190.5c0,9.522,7.72,17.241,17.241,17.241h156.882c9.522,0,17.241-7.719,17.241-17.241V230.165
	C512,225.105,509.778,220.301,505.923,217.026z"/>
<path style="fill:#A2A9B0;" d="M512,230.165c0-5.059-2.223-9.863-6.077-13.139l-72.534-61.633
	c-3.117-2.648-7.073-4.102-11.164-4.102h-84.348c-9.522,0-17.241,7.719-17.241,17.241v73.329H512V230.165z"/>
<path style="fill:#CFCDCF;" d="M413.087,151.29h-75.21c-9.522,0-17.241,7.719-17.241,17.241v73.329h92.451V151.29z"/>
<path style="fill:#FAD52A;" d="M337.877,104.015H17.241C7.719,104.015,0,111.734,0,121.256v243.38
	c0,9.522,7.719,17.241,17.241,17.241h320.636c9.522,0,17.241-7.719,17.241-17.241v-243.38
	C355.118,111.733,347.399,104.015,337.877,104.015z"/>
<path style="fill:#FFEA5E;" d="M177.56,104.015H17.241C7.719,104.015,0,111.734,0,121.256v243.38
	c0,9.522,7.719,17.241,17.241,17.241H177.56V104.015z"/>
<path style="fill:#FF9900;" d="M355.118,121.256c0-9.522-7.72-17.241-17.241-17.241H17.241C7.719,104.015,0,111.734,0,121.256
	v83.437h355.118V121.256z"/>
<path style="fill:#FAD52A;" d="M177.56,104.015H17.241C7.719,104.015,0,111.734,0,121.256v83.437h177.56V104.015z"/>
<path style="fill:#555559;" d="M413.087,202.695c-9.522,0-17.241,7.719-17.241,17.241v21.91l17.241,0.015l17.241-0.015v-21.91
	C430.328,210.414,422.61,202.695,413.087,202.695z"/>
<path style="fill:#AEADB3;" d="M413.087,202.695c-9.522,0-17.241,7.719-17.241,17.241v21.91l17.241,0.015V202.695z"/>
<path style="fill:#555559;" d="M428.438,407.985c-30.538,0-55.381-24.845-55.381-55.382s24.844-55.381,55.381-55.381
	s55.382,24.844,55.382,55.381S458.976,407.985,428.438,407.985z"/>
<path style="fill:#AEADB3;" d="M428.438,407.985c-30.538,0-55.381-24.845-55.381-55.382s24.844-55.381,55.381-55.381V407.985z"/>
<circle style="fill:#FF9900;" cx="428.445" cy="352.606" r="20.896"/>
<path style="fill:#FAD52A;" d="M428.44,331.704c-11.542,0-20.9,9.357-20.9,20.9c0,11.542,9.357,20.9,20.9,20.9V331.704z"/>
<path style="fill:#555559;" d="M110.498,407.985c-30.538,0-55.381-24.845-55.381-55.382s24.844-55.381,55.381-55.381
	s55.382,24.844,55.382,55.381S141.036,407.985,110.498,407.985z"/>
<path style="fill:#AEADB3;" d="M110.498,407.985c-30.538,0-55.381-24.845-55.381-55.382s24.844-55.381,55.381-55.381V407.985z"/>
<circle style="fill:#FF9900;" cx="110.493" cy="352.606" r="20.896"/>
<path style="fill:#FAD52A;" d="M110.498,331.704c-11.542,0-20.9,9.357-20.9,20.9c0,11.542,9.357,20.9,20.9,20.9V331.704z"/>
</svg>